<?xml version="1.0" standalone="no"?>
<!DOCTYPE svg PUBLIC "-//W3C//DTD SVG 20010904//EN"
 "http://www.w3.org/TR/2001/REC-SVG-20010904/DTD/svg10.dtd">
<svg version="1.0" xmlns="http://www.w3.org/2000/svg"
 width="144.000000pt" height="144.000000pt" viewBox="0 0 144.000000 144.000000"
 preserveAspectRatio="xMidYMid meet">
<metadata>
Created by potrace 1.14, written by Peter Selinger 2001-2017
</metadata>
<g transform="translate(0.000000,144.000000) scale(0.100000,-0.100000)"
fill="#000000" stroke="none">
<path d="M560 978 c-19 -47 -51 -179 -45 -188 10 -16 33 -12 43 8 17 32 53
182 47 192 -11 18 -35 11 -45 -12z"/>
<path d="M847 988 c-2 -7 7 -56 22 -108 19 -69 31 -96 44 -98 26 -5 30 21 14
80 -9 29 -21 72 -27 96 -8 30 -16 42 -29 42 -11 0 -21 -6 -24 -12z"/>
<path d="M367 813 c-4 -3 -7 -21 -7 -40 l0 -33 366 0 365 0 -3 38 -3 37 -62 3
c-50 2 -63 0 -63 -12 0 -19 -27 -46 -46 -46 -8 0 -23 13 -32 30 l-17 30 -141
0 -142 0 -6 -24 c-11 -46 -76 -41 -76 5 0 17 -8 19 -63 19 -35 0 -67 -3 -70
-7z"/>
<path d="M430 713 c0 -5 16 -71 36 -148 24 -93 43 -146 56 -157 18 -16 43 -18
208 -18 165 0 189 2 203 18 14 16 87 264 87 297 0 13 -42 15 -295 15 -162 0
-295 -3 -295 -7z m320 -157 c0 -79 -3 -105 -14 -109 -27 -11 -36 17 -36 108 0
51 3 95 7 98 3 4 15 7 25 7 16 0 18 -10 18 -104z m-130 0 c0 -62 -4 -85 -14
-89 -25 -10 -36 16 -36 88 0 77 3 85 32 85 16 0 18 -9 18 -84z m258 5 c3 -75
-7 -104 -34 -94 -10 4 -14 25 -14 82 0 81 4 94 30 89 11 -3 16 -20 18 -77z"/>
</g>
</svg>
